<?xml version="1.0" encoding="utf-8"?>
<!-- Generator: Adobe Illustrator 25.0.0, SVG Export Plug-In . SVG Version: 6.00 Build 0)  -->
<svg version="1.1" id="Layer_1" xmlns="http://www.w3.org/2000/svg" xmlns:xlink="http://www.w3.org/1999/xlink" x="0px" y="0px"
	 viewBox="0 0 240 80" style="enable-background:new 0 0 240 80;" xml:space="preserve">
<style type="text/css">
	.st0{fill:#00843D;}
	.st1{fill:#C8102E;}
</style>
<g>
	<g>
		<path d="M24.77,11.63v56.73H81.5V11.63H24.77z M79.98,66.85H26.29V13.15h53.69V66.85z"/>
		<rect x="65.29" y="17.71" class="st0" width="10.13" height="44.57"/>
		<path d="M55.16,17.71H30.85v10.13h14.18C49.66,26.02,53.34,22.34,55.16,17.71z"/>
		<path class="st1" d="M45.03,27.84H30.85v34.44h4.05c1.53-9.59,5.05-18.52,10.13-26.34V27.84z"/>
		<path d="M53.14,35.95h-8.1c-5.08,7.82-8.6,16.75-10.13,26.34h18.24V35.95z"/>
	</g>
	<g>
		<g>
			<g>
				<path d="M92.78,66.34l-0.54-1.59h-2.93l-0.56,1.59h-1.17l2.56-7.2h1.35l2.58,7.2H92.78z M91.07,61.37
					c-0.13-0.35-0.22-0.66-0.3-0.98h-0.01c-0.1,0.32-0.18,0.63-0.3,0.98l-0.87,2.47h2.34L91.07,61.37z"/>
				<path d="M100.16,66.34l-2.55-4.33c-0.29-0.51-0.51-0.96-0.7-1.42c0.04,0.7,0.07,2.63,0.07,3.77v1.99h-1.12v-7.2h1.55l2.5,4.25
					c0.27,0.45,0.53,0.97,0.75,1.44c-0.03-0.81-0.07-2.72-0.07-3.86v-1.83h1.12v7.2H100.16z"/>
				<path d="M106.38,66.38c-0.74,0-1.35-0.04-1.91-0.05v-7.18c0.57-0.02,1.4-0.05,2.23-0.05c2.27,0,3.67,1.05,3.67,3.54
					C110.37,65.1,108.73,66.38,106.38,66.38z M106.6,60.06c-0.35,0-0.72,0.01-0.97,0.03v5.24c0.24,0.03,0.58,0.06,0.87,0.06
					c1.55,0,2.64-0.83,2.64-2.68C109.13,61.01,108.37,60.06,106.6,60.06z"/>
				<path d="M117.11,66.45c-0.61,0-1.15-0.06-1.61-0.19l0.14-1.12c0.45,0.18,0.98,0.3,1.53,0.3c0.76,0,1.41-0.31,1.41-1.1
					c0-1.52-3.16-0.88-3.16-3.21c0-1.23,0.94-2.09,2.62-2.09c0.41,0,0.9,0.05,1.29,0.14l-0.12,1.02c-0.38-0.13-0.81-0.2-1.24-0.2
					c-0.91,0-1.33,0.41-1.33,1.01c0,1.43,3.2,0.91,3.2,3.18C119.83,65.5,118.75,66.45,117.11,66.45z"/>
				<path d="M124.15,60.12v6.22h-1.16v-6.22H121v-0.98h5.14v0.98H124.15z"/>
				<path d="M131.65,66.34l-0.54-1.59h-2.93l-0.56,1.59h-1.17l2.56-7.2h1.35l2.58,7.2H131.65z M129.95,61.37
					c-0.13-0.35-0.22-0.66-0.3-0.98h-0.01c-0.1,0.32-0.18,0.63-0.3,0.98l-0.87,2.47h2.34L129.95,61.37z"/>
				<path d="M136.43,60.12v6.22h-1.16v-6.22h-1.99v-0.98h5.14v0.98H136.43z"/>
				<path d="M140.3,66.34v-7.2h1.16v7.2H140.3z"/>
				<path d="M145.39,66.45c-0.61,0-1.15-0.06-1.61-0.19l0.14-1.12c0.45,0.18,0.98,0.3,1.53,0.3c0.76,0,1.41-0.31,1.41-1.1
					c0-1.52-3.16-0.88-3.16-3.21c0-1.23,0.94-2.09,2.62-2.09c0.41,0,0.9,0.05,1.29,0.14l-0.12,1.02c-0.38-0.13-0.81-0.2-1.24-0.2
					c-0.91,0-1.33,0.41-1.33,1.01c0,1.43,3.2,0.91,3.2,3.18C148.11,65.5,147.03,66.45,145.39,66.45z"/>
				<path d="M152.43,60.12v6.22h-1.16v-6.22h-1.99v-0.98h5.14v0.98H152.43z"/>
				<path d="M156.3,66.34v-7.2h1.16v7.2H156.3z"/>
				<path d="M162.94,66.43c-2.4,0-3.3-1.56-3.3-3.49c0-2.23,1.14-3.86,3.57-3.86c0.53,0,1.11,0.07,1.6,0.22l-0.17,1.07
					c-0.48-0.18-1-0.28-1.52-0.28c-1.52,0-2.2,1.15-2.2,2.66c0,1.68,0.72,2.64,2.29,2.64c0.49,0,1.08-0.14,1.48-0.33l0.19,1.01
					C164.34,66.28,163.65,66.43,162.94,66.43z"/>
				<path d="M168.42,66.45c-0.61,0-1.15-0.06-1.61-0.19l0.14-1.12c0.45,0.18,0.98,0.3,1.53,0.3c0.76,0,1.41-0.31,1.41-1.1
					c0-1.52-3.16-0.88-3.16-3.21c0-1.23,0.94-2.09,2.62-2.09c0.41,0,0.9,0.05,1.29,0.14l-0.12,1.02c-0.38-0.13-0.81-0.2-1.24-0.2
					c-0.91,0-1.33,0.41-1.33,1.01c0,1.43,3.2,0.91,3.2,3.18C171.15,65.5,170.07,66.45,168.42,66.45z"/>
				<path d="M179.45,66.43c-2.4,0-3.3-1.56-3.3-3.49c0-2.23,1.14-3.86,3.57-3.86c0.53,0,1.11,0.07,1.6,0.22l-0.17,1.07
					c-0.48-0.18-1-0.28-1.52-0.28c-1.52,0-2.2,1.15-2.2,2.66c0,1.68,0.72,2.64,2.29,2.64c0.49,0,1.08-0.14,1.48-0.33l0.19,1.01
					C180.85,66.28,180.16,66.43,179.45,66.43z"/>
				<path d="M183.58,66.34v-7.2h3.8v0.96h-2.64v2.06h2.51v0.95h-2.51v2.24h2.64v0.99H183.58z"/>
				<path d="M194.11,66.34l-2.55-4.33c-0.29-0.51-0.51-0.96-0.7-1.42c0.04,0.7,0.07,2.63,0.07,3.77v1.99h-1.12v-7.2h1.55l2.5,4.25
					c0.27,0.45,0.53,0.97,0.75,1.44c-0.03-0.81-0.07-2.72-0.07-3.86v-1.83h1.12v7.2H194.11z"/>
				<path d="M200.7,60.12v6.22h-1.16v-6.22h-1.99v-0.98h5.14v0.98H200.7z"/>
				<path d="M208.04,66.34l-2.18-3.12h-0.13v3.12h-1.16v-7.2c0.52-0.03,1.12-0.04,1.92-0.04c1.51,0,2.53,0.52,2.53,1.94
					c0,1.15-0.89,1.9-1.96,2.03c0.2,0.26,0.43,0.52,0.6,0.77l1.84,2.51H208.04z M206.34,60.04c-0.24,0-0.44,0.01-0.61,0.03v2.28
					c0.11,0.01,0.31,0.02,0.57,0.02c0.94,0,1.51-0.48,1.51-1.21C207.81,60.38,207.31,60.04,206.34,60.04z"/>
				<path d="M211.43,66.34v-7.2h3.8v0.96h-2.64v2.06h2.51v0.95h-2.51v2.24h2.64v0.99H211.43z"/>
			</g>
			<g>
				<path d="M88.74,47.96v2.11h2.45v0.95h-2.45v3.16h-1.16v-7.2h3.76v0.98H88.74z"/>
				<path d="M92.6,54.18v-7.2h3.8v0.96h-2.64V50h2.51v0.95h-2.51v2.24h2.64v0.99H92.6z"/>
				<path d="M99.87,54.23c-0.74,0-1.34-0.04-1.91-0.05v-7.18c0.57-0.02,1.4-0.05,2.23-0.05c2.27,0,3.67,1.05,3.67,3.54
					C103.87,52.95,102.22,54.23,99.87,54.23z M100.1,47.91c-0.35,0-0.71,0.01-0.97,0.03v5.24c0.23,0.03,0.58,0.06,0.86,0.06
					c1.55,0,2.64-0.83,2.64-2.68C102.63,48.86,101.87,47.91,100.1,47.91z"/>
				<path d="M105.18,54.18v-7.2h3.8v0.96h-2.64V50h2.51v0.95h-2.51v2.24h2.64v0.99H105.18z"/>
				<path d="M114.01,54.18l-2.18-3.12h-0.13v3.12h-1.16v-7.2c0.52-0.03,1.12-0.04,1.92-0.04c1.5,0,2.53,0.52,2.53,1.94
					c0,1.15-0.89,1.9-1.96,2.03c0.2,0.26,0.43,0.52,0.6,0.77l1.84,2.51H114.01z M112.32,47.89c-0.23,0-0.44,0.01-0.61,0.03v2.28
					c0.11,0.01,0.31,0.02,0.57,0.02c0.94,0,1.5-0.48,1.5-1.21C113.78,48.23,113.28,47.89,112.32,47.89z"/>
				<path d="M120.8,54.18l-0.54-1.59h-2.92l-0.55,1.59h-1.17l2.56-7.2h1.34l2.58,7.2H120.8z M119.09,49.21
					c-0.13-0.35-0.22-0.66-0.3-0.98h-0.01c-0.1,0.32-0.18,0.63-0.3,0.98l-0.86,2.47h2.34L119.09,49.21z"/>
				<path d="M123.02,54.18v-7.2h1.16v6.2h2.48v1H123.02z"/>
				<path d="M132.89,54.27c-2.4,0-3.3-1.56-3.3-3.49c0-2.23,1.14-3.86,3.56-3.86c0.53,0,1.11,0.07,1.6,0.22l-0.17,1.07
					c-0.48-0.18-1-0.28-1.52-0.28c-1.52,0-2.2,1.15-2.2,2.66c0,1.68,0.71,2.64,2.28,2.64c0.49,0,1.08-0.14,1.48-0.33l0.19,1.01
					C134.29,54.12,133.6,54.27,132.89,54.27z"/>
				<path d="M138.7,54.29c-2.18,0-3.23-1.42-3.23-3.61c0-2.4,1.57-3.81,3.46-3.81c2.18,0,3.24,1.42,3.24,3.61
					C142.16,52.88,140.6,54.29,138.7,54.29z M138.81,47.91c-1.17,0-2.11,0.94-2.11,2.62c0,1.64,0.68,2.72,2.11,2.72
					c1.17,0,2.11-0.93,2.11-2.62C140.93,49,140.23,47.91,138.81,47.91z"/>
				<path d="M150.32,54.18l-0.58-3.86c-0.1-0.72-0.17-1.36-0.22-1.81h-0.02c-0.09,0.39-0.21,0.93-0.38,1.48l-1.38,4.19h-1.17
					l-1.3-3.92c-0.19-0.6-0.36-1.23-0.47-1.76h-0.02c-0.04,0.61-0.11,1.25-0.19,1.91l-0.46,3.77h-1.17l1.07-7.2h1.4l1.39,4.18
					c0.12,0.37,0.29,0.97,0.41,1.46h0.02c0.13-0.52,0.26-1,0.39-1.42l1.4-4.23h1.41l1.1,7.2H150.32z"/>
				<path d="M154.58,51.59c-0.32,0-0.6-0.03-0.6-0.03v2.63h-1.16v-7.2c0,0,0.97-0.04,1.9-0.04c1.71,0,2.65,0.81,2.65,2.16
					C157.36,50.53,156.35,51.59,154.58,51.59z M154.61,47.9c-0.32,0-0.63,0.01-0.63,0.01v2.66c0,0,0.31,0.05,0.68,0.05
					c0.99,0,1.49-0.53,1.49-1.39C156.15,48.37,155.67,47.9,154.61,47.9z"/>
				<path d="M158.52,54.18v-7.2h3.8v0.96h-2.64V50h2.51v0.95h-2.51v2.24h2.64v0.99H158.52z"/>
				<path d="M166.36,47.96v6.22h-1.16v-6.22h-1.98v-0.98h5.13v0.98H166.36z"/>
				<path d="M169.38,54.18v-7.2h1.16v7.2H169.38z"/>
				<path d="M174.73,47.96v6.22h-1.16v-6.22h-1.98v-0.98h5.13v0.98H174.73z"/>
				<path d="M177.75,54.18v-7.2h1.16v7.2H177.75z"/>
				<path d="M183.75,54.18h-1.32l-2.56-7.2h1.28l1.52,4.45c0.15,0.41,0.32,0.96,0.45,1.43h0.02c0.12-0.48,0.29-1.01,0.47-1.52
					l1.55-4.37h1.2L183.75,54.18z"/>
				<path d="M187.29,54.18v-7.2h3.8v0.96h-2.64V50h2.51v0.95h-2.51v2.24h2.64v0.99H187.29z"/>
				<path d="M196.96,54.18l-2.55-4.33c-0.29-0.51-0.51-0.96-0.7-1.42c0.04,0.7,0.07,2.63,0.07,3.77v1.99h-1.12v-7.2h1.55l2.5,4.25
					c0.27,0.45,0.53,0.97,0.75,1.44c-0.03-0.81-0.07-2.72-0.07-3.86v-1.83h1.12v7.2H196.96z"/>
				<path d="M200.41,54.18v-7.2h3.8v0.96h-2.64V50h2.51v0.95h-2.51v2.24h2.64v0.99H200.41z"/>
				<path d="M207.11,54.29c-0.61,0-1.15-0.06-1.61-0.19l0.14-1.12c0.45,0.18,0.98,0.3,1.53,0.3c0.76,0,1.41-0.31,1.41-1.1
					c0-1.52-3.16-0.88-3.16-3.21c0-1.23,0.94-2.09,2.61-2.09c0.41,0,0.9,0.05,1.29,0.14l-0.12,1.02c-0.38-0.13-0.81-0.2-1.24-0.2
					c-0.91,0-1.33,0.41-1.33,1.01c0,1.43,3.2,0.91,3.2,3.18C209.83,53.34,208.75,54.29,207.11,54.29z"/>
				<path d="M212.51,54.29c-0.61,0-1.15-0.06-1.61-0.19l0.14-1.12c0.45,0.18,0.98,0.3,1.53,0.3c0.76,0,1.41-0.31,1.41-1.1
					c0-1.52-3.16-0.88-3.16-3.21c0-1.23,0.94-2.09,2.61-2.09c0.41,0,0.9,0.05,1.29,0.14l-0.12,1.02c-0.38-0.13-0.81-0.2-1.24-0.2
					c-0.91,0-1.33,0.41-1.33,1.01c0,1.43,3.2,0.91,3.2,3.18C215.23,53.34,214.15,54.29,212.51,54.29z"/>
			</g>
		</g>
		<g>
			<g>
				<g>
					<rect x="213.95" y="13.66" width="1.28" height="8.2"/>
					<path d="M188,21.19c0-2.64-1.04-3.92-2.73-4.65l3.03-1.84v-1.27l-4.5,2.82v0.94c1.95,0.51,2.91,1.59,2.96,3.67h-30.1v-4.6
						h-1.27v5.07c0,2.38-1.71,2.34-3.17,2.34v1.14c1.38,0,4.12,0.03,4.41-2.94H188V21.19z"/>
					<path d="M210.59,20.85h-4.38V18.9c0-1.65-0.83-2.64-2.56-2.64c-1.97,0-2.96,1.34-2.96,2.84c0,1.38-0.51,1.76-1.26,1.76h-7.51
						v-4.6h-1.27v5.07c0,2.38-1.71,2.34-3.17,2.34v1.14c1.38,0,4.12,0.03,4.41-2.94h7.72c0.97,0,1.48-0.42,1.66-1
						c0.4,0.59,0.95,1,2.65,1h7.93v-8.2h-1.27V20.85z M204.95,20.85h-1.04c-1.36,0-1.95-0.59-1.95-1.81c0-1.05,0.59-1.77,1.58-1.77
						c0.88,0,1.41,0.52,1.41,1.8V20.85z"/>
					<rect x="155.37" y="13.66" width="1.27" height="1.27"/>
				</g>
				<g>
					<path d="M98.95,16.15l-0.48,1.05c1.72,0.77,2.18,1.84,2.2,3.65h-4.22v1.01h5.48V21.2C101.93,18.51,101.24,17.16,98.95,16.15z"
						/>
					<polygon points="144.72,20.85 141.12,20.85 141.12,21.86 146,21.86 146,13.66 144.72,13.66 					"/>
					<rect x="148.09" y="13.66" width="1.28" height="8.2"/>
					<path d="M137.39,20.85h-6.01v-0.03c0-0.81,0-2.41-1.12-3.52c-0.7-0.7-1.72-1.06-3.06-1.05l-1.47,0v1.09h1.47c3,0,3,2.27,3,3.41
						v0.1h-25.17v-7.19h-1.28v8.2h34.9v-5.61h-1.27V20.85z"/>
					<path d="M97.55,19.57V19.2c0-1.77-0.69-2.94-2.86-2.94c-0.98,0-1.9,0.17-1.9,0.17v4.42h-0.91c-2.32,0-3.03-0.84-3.03-2.55
						c0-0.64,0.16-1.42,0.43-1.97l-1.37,0.22c-0.19,0.48-0.34,1.22-0.34,1.9c0,2.16,1.12,3.41,4.15,3.41h2.29v-4.53
						c0,0,0.38-0.07,0.71-0.07c1.15,0,1.71,0.56,1.71,1.97v0.34H97.55z"/>
					<rect x="137.39" y="13.66" width="1.27" height="1.27"/>
					<rect x="135.63" y="13.66" width="1.27" height="1.27"/>
					<rect x="91.64" y="23.54" width="1.27" height="1.27"/>
					<rect x="89.89" y="23.54" width="1.27" height="1.27"/>
					<polygon points="143.71,19.88 141.9,13.59 140.63,13.76 142.39,19.88 					"/>
				</g>
			</g>
			<g>
				<g>
					<rect x="206.43" y="28.87" width="1.27" height="1.27"/>
					<rect x="204.67" y="28.87" width="1.27" height="1.27"/>
					<rect x="163.46" y="38.75" width="1.27" height="1.27"/>
					<rect x="161.7" y="38.75" width="1.27" height="1.27"/>
					<rect x="201.54" y="28.87" width="1.27" height="1.27"/>
					<rect x="188.1" y="28.87" width="1.27" height="1.27"/>
					<rect x="155.91" y="28.87" width="1.27" height="1.27"/>
					<rect x="154.15" y="28.87" width="1.27" height="1.27"/>
					<polygon points="213.96,28.87 213.96,36.06 211.21,36.06 211.21,28.87 209.95,28.87 209.95,36.06 206.82,36.06 206.82,31.47 
						205.55,31.47 205.55,36.06 202.8,36.06 202.8,31.47 201.54,31.47 201.54,36.06 194.67,36.06 194.67,28.87 193.39,28.87 
						193.39,37.08 215.23,37.08 215.23,28.87 					"/>
					<path d="M188.95,31.47c-1.97,0-2.97,1.34-2.97,2.84c0,0.91,0.27,1.49,0.77,1.83c0,0-0.26-0.07-0.66-0.07h-4.1
						c0.09-0.21,0.13-0.45,0.13-0.71v-3.89h-1.13v3.89c0,0.42-0.28,0.7-0.7,0.7h-1.53c0.08-0.21,0.13-0.45,0.13-0.7v-3.19h-1.13
						v3.19c0,0.42-0.28,0.7-0.7,0.7h-1.53c0.08-0.21,0.13-0.45,0.13-0.7v-2.48h-1.13v2.48c0,0.42-0.28,0.7-0.7,0.7l-4.88,0l-5.09,0
						v-4.6h-1.27v4.6h-5.27v-4.6c-1.37,0.07-2.52,0.62-3.46,1.64c-0.94,1.02-1.48,2.35-1.65,3.97h1.21c0.09-0.53,0.2-0.99,0.33-1.37
						c0.11-0.34,0.26-0.7,0.49-1.07c0.46-0.81,0.98-1.33,1.57-1.61c0.07-0.01,0.17-0.05,0.3-0.11v4.16h17.7
						c0.69,0,1.24-0.27,1.55-0.73v0.73h1.69c0.69,0,1.24-0.27,1.55-0.73v0.73h1.69c0.39,0,0.73-0.09,1.01-0.25v0.25h10.2v-2.97
						C191.5,32.46,190.68,31.47,188.95,31.47z M190.25,36.06h-1.04c-1.37,0-1.95-0.59-1.95-1.82c0-1.05,0.59-1.77,1.58-1.77
						c0.88,0,1.41,0.52,1.41,1.8V36.06z"/>
				</g>
				<g>
					<rect x="139.69" y="28.87" width="1.28" height="8.2"/>
					<path d="M89.59,35.17c0-0.47,0.35-0.8,1.02-0.8c0.4,0,0.8,0.07,0.95,0.1l0.15-1.02c-0.17-0.02-0.59-0.08-1.01-0.08
						c-1.73,0-2.4,0.94-2.4,1.86c0,0.43,0.19,0.77,0.51,0.92c-0.29-0.05-0.76-0.08-1.24-0.08v1.01h4.51v-1.01h-1.05
						C89.98,36.06,89.59,35.69,89.59,35.17z"/>
					<path d="M134.42,38.91c0-0.21,0.19-0.36,0.54-0.36c0.26,0,0.47,0.03,0.58,0.07l0.13-0.72c-0.13-0.03-0.37-0.07-0.64-0.07
						c-1,0-1.49,0.5-1.49,1.07c0,0.24,0.12,0.38,0.23,0.45c-0.17-0.03-0.42-0.06-0.66-0.06v0.72h2.79V39.3h-0.71
						C134.64,39.3,134.42,39.16,134.42,38.91z"/>
					<polygon points="136.32,36.06 132.72,36.06 132.72,37.08 137.6,37.08 137.6,28.87 136.32,28.87 					"/>
					<path d="M126.44,31.47l-1.47,0v1.09h1.47c3,0,3,2.27,3,3.41v0.1h-8.75v-0.23c0-2.84-1.04-4.36-3.08-4.36
						c-1.34,0-2.71,0.99-3.63,2.43v-1.35h-1.18v1.94c0,0.95-0.25,1.38-0.53,1.57H94.94v-7.19h-1.28v8.2h36.96v-1.04
						c0-0.81,0-2.41-1.12-3.52C128.8,31.82,127.78,31.45,126.44,31.47z M119.49,36.06h-5.59c0.67-1.86,2.3-3.51,3.66-3.51
						c1.2,0,1.95,1.24,1.95,3.08C119.5,35.77,119.5,35.92,119.49,36.06z"/>
					<path d="M145.7,31.47c-2.05,0-2.99,1.37-2.99,2.9c0,1.66,0.84,2.71,3.08,2.71h1.06v0.23c0,1.23-0.9,1.7-2.13,1.7
						c-0.9,0-1.84-0.22-1.84-0.22l-0.09,1.06c0,0,0.92,0.17,1.8,0.17c2.54,0,3.5-1.34,3.5-2.8v-5.34
						C148.09,31.88,147.03,31.47,145.7,31.47z M146.85,36.06h-0.91c-1.37,0-1.94-0.62-1.94-1.82c0-1.05,0.59-1.77,1.57-1.77
						c0.77,0,1.28,0.24,1.28,0.24V36.06z"/>
					<polygon points="135.31,35.1 133.5,28.8 132.23,28.98 133.99,35.1 					"/>
				</g>
			</g>
		</g>
	</g>
</g>
</svg>
